<mxfile host="app.diagrams.net" agent="Mozilla/5.0 (Windows NT 10.0; Win64; x64) AppleWebKit/537.36 (KHTML, like Gecko) Chrome/133.0.0.0 Safari/537.36" version="26.0.16">
  <diagram name="PaginÄƒ-1" id="7Mw6Big4B0a8fydghSE1">
    <mxGraphModel dx="685" dy="418" grid="1" gridSize="10" guides="1" tooltips="1" connect="1" arrows="1" fold="1" page="1" pageScale="1" pageWidth="827" pageHeight="1169" math="0" shadow="0">
      <root>
        <mxCell id="0" />
        <mxCell id="1" parent="0" />
        <mxCell id="UhKrcw9S3NwvpVfWal7V-1" value="q0" style="ellipse;whiteSpace=wrap;html=1;aspect=fixed;" vertex="1" parent="1">
          <mxGeometry x="120" y="60" width="80" height="80" as="geometry" />
        </mxCell>
        <mxCell id="UhKrcw9S3NwvpVfWal7V-2" value="q1" style="ellipse;whiteSpace=wrap;html=1;aspect=fixed;" vertex="1" parent="1">
          <mxGeometry x="320" y="60" width="80" height="80" as="geometry" />
        </mxCell>
        <mxCell id="UhKrcw9S3NwvpVfWal7V-3" value="q2" style="ellipse;whiteSpace=wrap;html=1;aspect=fixed;" vertex="1" parent="1">
          <mxGeometry x="320" y="210" width="80" height="80" as="geometry" />
        </mxCell>
        <mxCell id="UhKrcw9S3NwvpVfWal7V-4" value="q3" style="ellipse;whiteSpace=wrap;html=1;aspect=fixed;" vertex="1" parent="1">
          <mxGeometry x="180" y="205" width="80" height="80" as="geometry" />
        </mxCell>
        <mxCell id="UhKrcw9S3NwvpVfWal7V-5" value="" style="endArrow=classic;html=1;rounded=0;exitX=1;exitY=0.5;exitDx=0;exitDy=0;entryX=0;entryY=0.5;entryDx=0;entryDy=0;" edge="1" parent="1" source="UhKrcw9S3NwvpVfWal7V-1" target="UhKrcw9S3NwvpVfWal7V-2">
          <mxGeometry width="50" height="50" relative="1" as="geometry">
            <mxPoint x="230" y="110" as="sourcePoint" />
            <mxPoint x="280" y="60" as="targetPoint" />
          </mxGeometry>
        </mxCell>
        <mxCell id="UhKrcw9S3NwvpVfWal7V-6" value="&#39;a&#39;" style="text;html=1;align=center;verticalAlign=middle;whiteSpace=wrap;rounded=0;fontSize=20;" vertex="1" parent="1">
          <mxGeometry x="220" y="70" width="60" height="30" as="geometry" />
        </mxCell>
        <mxCell id="UhKrcw9S3NwvpVfWal7V-7" value="" style="curved=1;endArrow=classic;html=1;rounded=0;entryX=0;entryY=1;entryDx=0;entryDy=0;exitX=1;exitY=1;exitDx=0;exitDy=0;" edge="1" parent="1" source="UhKrcw9S3NwvpVfWal7V-1" target="UhKrcw9S3NwvpVfWal7V-1">
          <mxGeometry width="50" height="50" relative="1" as="geometry">
            <mxPoint x="130" y="210" as="sourcePoint" />
            <mxPoint x="180" y="160" as="targetPoint" />
            <Array as="points">
              <mxPoint x="180" y="200" />
              <mxPoint x="140" y="200" />
              <mxPoint x="130" y="160" />
            </Array>
          </mxGeometry>
        </mxCell>
        <mxCell id="UhKrcw9S3NwvpVfWal7V-8" value="Alt caracter" style="text;html=1;align=center;verticalAlign=middle;whiteSpace=wrap;rounded=0;" vertex="1" parent="1">
          <mxGeometry x="130" y="140" width="60" height="30" as="geometry" />
        </mxCell>
        <mxCell id="UhKrcw9S3NwvpVfWal7V-9" value="" style="curved=1;endArrow=classic;html=1;rounded=0;entryX=1;entryY=0.5;entryDx=0;entryDy=0;exitX=0.969;exitY=0.239;exitDx=0;exitDy=0;exitPerimeter=0;" edge="1" parent="1" source="UhKrcw9S3NwvpVfWal7V-2" target="UhKrcw9S3NwvpVfWal7V-2">
          <mxGeometry width="50" height="50" relative="1" as="geometry">
            <mxPoint x="508" y="70" as="sourcePoint" />
            <mxPoint x="452" y="70" as="targetPoint" />
            <Array as="points">
              <mxPoint x="440" y="50" />
              <mxPoint x="470" y="80" />
              <mxPoint x="470" y="100" />
              <mxPoint x="450" y="130" />
            </Array>
          </mxGeometry>
        </mxCell>
        <mxCell id="UhKrcw9S3NwvpVfWal7V-11" value="" style="endArrow=classic;html=1;rounded=0;entryX=0.5;entryY=0;entryDx=0;entryDy=0;exitX=0.5;exitY=1;exitDx=0;exitDy=0;" edge="1" parent="1" source="UhKrcw9S3NwvpVfWal7V-2" target="UhKrcw9S3NwvpVfWal7V-3">
          <mxGeometry width="50" height="50" relative="1" as="geometry">
            <mxPoint x="300" y="200" as="sourcePoint" />
            <mxPoint x="350" y="150" as="targetPoint" />
          </mxGeometry>
        </mxCell>
        <mxCell id="UhKrcw9S3NwvpVfWal7V-12" value="&#39;b&#39;" style="text;html=1;align=center;verticalAlign=middle;whiteSpace=wrap;rounded=0;fontSize=20;" vertex="1" parent="1">
          <mxGeometry x="350" y="150" width="60" height="30" as="geometry" />
        </mxCell>
        <mxCell id="UhKrcw9S3NwvpVfWal7V-13" value="Alt caracter" style="text;html=1;align=center;verticalAlign=middle;whiteSpace=wrap;rounded=0;" vertex="1" parent="1">
          <mxGeometry x="400" y="70" width="60" height="30" as="geometry" />
        </mxCell>
        <mxCell id="UhKrcw9S3NwvpVfWal7V-14" value="" style="curved=1;endArrow=classic;html=1;rounded=0;entryX=0.973;entryY=0.607;entryDx=0;entryDy=0;exitX=0.973;exitY=0.353;exitDx=0;exitDy=0;exitPerimeter=0;entryPerimeter=0;" edge="1" parent="1" source="UhKrcw9S3NwvpVfWal7V-3" target="UhKrcw9S3NwvpVfWal7V-3">
          <mxGeometry width="50" height="50" relative="1" as="geometry">
            <mxPoint x="400" y="239" as="sourcePoint" />
            <mxPoint x="402" y="260" as="targetPoint" />
            <Array as="points">
              <mxPoint x="442" y="210" />
              <mxPoint x="472" y="240" />
              <mxPoint x="472" y="260" />
              <mxPoint x="452" y="290" />
            </Array>
          </mxGeometry>
        </mxCell>
        <mxCell id="UhKrcw9S3NwvpVfWal7V-15" value="Alt caracter" style="text;html=1;align=center;verticalAlign=middle;whiteSpace=wrap;rounded=0;" vertex="1" parent="1">
          <mxGeometry x="402" y="230" width="60" height="30" as="geometry" />
        </mxCell>
        <mxCell id="UhKrcw9S3NwvpVfWal7V-18" value="" style="endArrow=classic;html=1;rounded=0;exitX=0;exitY=0.5;exitDx=0;exitDy=0;entryX=1.005;entryY=0.573;entryDx=0;entryDy=0;entryPerimeter=0;" edge="1" parent="1" source="UhKrcw9S3NwvpVfWal7V-3" target="UhKrcw9S3NwvpVfWal7V-4">
          <mxGeometry width="50" height="50" relative="1" as="geometry">
            <mxPoint x="270" y="270" as="sourcePoint" />
            <mxPoint x="320" y="220" as="targetPoint" />
          </mxGeometry>
        </mxCell>
        <mxCell id="UhKrcw9S3NwvpVfWal7V-19" value="&#39;d&#39;" style="text;html=1;align=center;verticalAlign=middle;whiteSpace=wrap;rounded=0;fontSize=20;" vertex="1" parent="1">
          <mxGeometry x="260" y="220" width="60" height="30" as="geometry" />
        </mxCell>
        <mxCell id="UhKrcw9S3NwvpVfWal7V-20" value="" style="curved=1;endArrow=classic;html=1;rounded=0;entryX=0;entryY=1;entryDx=0;entryDy=0;exitX=1;exitY=1;exitDx=0;exitDy=0;" edge="1" parent="1" source="UhKrcw9S3NwvpVfWal7V-4" target="UhKrcw9S3NwvpVfWal7V-4">
          <mxGeometry width="50" height="50" relative="1" as="geometry">
            <mxPoint x="248" y="285" as="sourcePoint" />
            <mxPoint x="192" y="285" as="targetPoint" />
            <Array as="points">
              <mxPoint x="240" y="357" />
              <mxPoint x="200" y="357" />
              <mxPoint x="190" y="317" />
            </Array>
          </mxGeometry>
        </mxCell>
        <mxCell id="UhKrcw9S3NwvpVfWal7V-21" value="Orice caracter" style="text;html=1;align=center;verticalAlign=middle;whiteSpace=wrap;rounded=0;" vertex="1" parent="1">
          <mxGeometry x="190" y="290" width="60" height="30" as="geometry" />
        </mxCell>
        <mxCell id="UhKrcw9S3NwvpVfWal7V-22" value="" style="endArrow=classic;html=1;rounded=0;entryX=0;entryY=0.5;entryDx=0;entryDy=0;" edge="1" parent="1" target="UhKrcw9S3NwvpVfWal7V-1">
          <mxGeometry width="50" height="50" relative="1" as="geometry">
            <mxPoint x="40" y="100" as="sourcePoint" />
            <mxPoint x="90" y="90" as="targetPoint" />
          </mxGeometry>
        </mxCell>
      </root>
    </mxGraphModel>
  </diagram>
</mxfile>
